<svg id="tray.and.arrow.down.fill" xmlns="http://www.w3.org/2000/svg" width="30.867" height="32.826" viewBox="0 0 30.867 32.826">
  <rect id="사각형_24071" data-name="사각형 24071" width="30.867" height="32.826" fill="#59575e" opacity="0"/>
  <path id="패스_7789" data-name="패스 7789" d="M25.209,8.478l4.446,6.032a3.423,3.423,0,0,1,.735,2.449v7.114c0,2.655-1.34,4-4.047,4H4.047c-2.694,0-4.047-1.34-4.047-4V16.958a3.483,3.483,0,0,1,.735-2.449L5.194,8.478c1.4-1.92,2.165-2.423,4.459-2.423h2.1V7.872H9.5A2.587,2.587,0,0,0,7.2,8.98L2.436,15.54c-.206.283-.116.631.309.631h8.21a1.046,1.046,0,0,1,1.07,1.121v.052a3.178,3.178,0,1,0,6.354,0v-.052a1.036,1.036,0,0,1,1.057-1.121h8.21c.425,0,.5-.348.309-.631L23.185,8.98a2.587,2.587,0,0,0-2.294-1.108H18.636V6.055h2.1C23.031,6.055,23.8,6.557,25.209,8.478Z" transform="translate(0 1.936)" fill="#59575e"/>
  <path id="패스_7790" data-name="패스 7790" d="M12.8,0a1.015,1.015,0,0,0-1.018.992V12.811l.077,1.933-.735-.76L9.137,11.857a.968.968,0,0,0-.709-.309.887.887,0,0,0-.928.9.907.907,0,0,0,.3.683l4.253,4.1a.987.987,0,0,0,.747.335.969.969,0,0,0,.747-.335l4.253-4.1a.912.912,0,0,0-.644-1.585.941.941,0,0,0-.7.309l-1.985,2.127-.735.76.09-1.933V.992A1.027,1.027,0,0,0,12.8,0Z" transform="translate(2.398)" fill="#59575e"/>
</svg>
