<svg id="arrow.uturn.right" xmlns="http://www.w3.org/2000/svg" width="20.739" height="22.246" viewBox="0 0 20.739 22.246">
  <rect id="사각형_24081" data-name="사각형 24081" width="20.739" height="22.246" fill="#b5b3ba" opacity="0"/>
  <path id="패스_7795" data-name="패스 7795" d="M20.341,15.179c0,4.122-2.7,6.866-7.523,6.866H10.332a.958.958,0,1,1,0-1.916h2.475c3.67,0,5.618-2.153,5.618-5.058s-1.948-4.918-5.618-4.918H5.424L2.077,10l.194-.5L4.94,11.789l3.1,3.024a.868.868,0,0,1,.258.657.9.9,0,0,1-.947.947,1.007,1.007,0,0,1-.7-.3L.323,9.906a.955.955,0,0,1,0-1.431l6.328-6.21a1.056,1.056,0,0,1,.7-.3A.9.9,0,0,1,8.3,2.91a.867.867,0,0,1-.258.657L4.94,6.6,2.271,8.872l-.194-.5,3.347-.151h7.222C17.564,8.227,20.341,11.068,20.341,15.179Z" transform="translate(0.398 0.2)" fill="#b5b3ba"/>
</svg>
