<svg id="arrow.up.and.down.and.arrow.left.and.right" xmlns="http://www.w3.org/2000/svg" width="22.864" height="22.586" viewBox="0 0 22.864 22.586">
  <rect id="사각형_24083" data-name="사각형 24083" width="22.864" height="22.586" fill="#d3d1d8" opacity="0"/>
  <path id="패스_7797" data-name="패스 7797" d="M.314,11.981,3.439,14.94a.886.886,0,0,0,1.523-.713v-2.07h5.42V17.6H8.3a.882.882,0,0,0-.713,1.514l2.959,3.125a.932.932,0,0,0,1.416-.01l2.949-3.115A.879.879,0,0,0,14.2,17.6H12.13V12.157h5.41v2.07a.885.885,0,0,0,1.523.713l3.115-2.949a.946.946,0,0,0,.01-1.416L19.064,7.616a.888.888,0,0,0-1.523.713v2.08H12.13V4.96H14.2a.879.879,0,0,0,.713-1.514L11.954.321a.932.932,0,0,0-1.416.01L7.589,3.446A.882.882,0,0,0,8.3,4.96h2.08v5.449H4.962V8.329a.889.889,0,0,0-1.523-.713L.324,10.565A.946.946,0,0,0,.314,11.981Z" fill="#d3d1d8"/>
</svg>
