<svg xmlns="http://www.w3.org/2000/svg" width="31.958" height="31.498" viewBox="0 0 31.958 31.498">
  <g id="그룹_18605" data-name="그룹 18605" transform="translate(-6963.202 -9433.672)">
    <g id="beziercurve" transform="translate(6963.202 9433.672)">
      <rect id="사각형_24070" data-name="사각형 24070" width="31.958" height="31.498" fill="#59575e" opacity="0"/>
      <path id="패스_7785" data-name="패스 7785" d="M7.458,31.475H9.583a1.322,1.322,0,0,0,1.408-1.435V27.983a1.333,1.333,0,0,0-1.408-1.448H7.458a1.333,1.333,0,0,0-1.408,1.448v2.057A1.322,1.322,0,0,0,7.458,31.475Zm.42-1.53a.277.277,0,0,1-.3-.3V28.389a.285.285,0,0,1,.3-.325h1.3c.176,0,.284.122.284.325v1.259a.274.274,0,0,1-.284.3Zm-.433-3.113H9.57a17.735,17.735,0,0,1,4.169-11.018l-1.53-1.354A19.594,19.594,0,0,0,7.445,26.833Zm20.48-15.9H30.05a1.322,1.322,0,0,0,1.408-1.435V7.422A1.329,1.329,0,0,0,30.05,5.987H27.925a1.336,1.336,0,0,0-1.408,1.435V9.493A1.329,1.329,0,0,0,27.925,10.928Zm.42-1.53a.277.277,0,0,1-.3-.3V7.842a.285.285,0,0,1,.3-.325h1.3c.189,0,.284.122.284.325V9.1a.267.267,0,0,1-.284.3ZM15.255,11.524l1.056,1.8A17.389,17.389,0,0,1,26.842,9.561V7.449A19.19,19.19,0,0,0,15.255,11.524Zm-3.14,3.952-1.2-1.123-9.516,9.5,1.164,1.178ZM14.646,10.6l1.191,1.123,9-8.974L23.674,1.575Zm9.773-6.9a1.821,1.821,0,1,0-1.827-1.814A1.814,1.814,0,0,0,24.419,3.7ZM1.814,26.535A1.821,1.821,0,1,0,0,24.721,1.817,1.817,0,0,0,1.814,26.535ZM13.766,16.9a3.418,3.418,0,1,0-3.411-3.411A3.426,3.426,0,0,0,13.766,16.9Zm0-1.8a1.618,1.618,0,1,1,1.624-1.611A1.606,1.606,0,0,1,13.766,15.1Z" transform="translate(0 0.023)" fill="#59575e"/>
    </g>
    <g id="person.badge.plus" transform="translate(6981.946 9452.24)">
      <rect id="사각형_24066" data-name="사각형 24066" width="10.574" height="10.724" transform="translate(0.048 0)" fill="#59575e" opacity="0"/>
      <path id="패스_7782" data-name="패스 7782" d="M28.316,21.321a5.335,5.335,0,1,1-5.335-5.335A5.4,5.4,0,0,1,28.316,21.321Zm-5.986-2.7V20.67H20.282a.646.646,0,0,0,0,1.292H22.33V24.02a.646.646,0,0,0,1.292,0V21.962h2.048a.646.646,0,1,0,0-1.292H23.622V18.622a.646.646,0,0,0-1.292,0Z" transform="translate(-17.646 -15.986)" fill="#59575e"/>
    </g>
  </g>
</svg>
