<svg id="arrow.uturn.right" xmlns="http://www.w3.org/2000/svg" width="20.739" height="22.246" viewBox="0 0 20.739 22.246">
  <rect id="사각형_24081" data-name="사각형 24081" width="20.739" height="22.246" fill="#b5b3ba" opacity="0"/>
  <path id="패스_7795" data-name="패스 7795" d="M0,15.179c0,4.122,2.7,6.866,7.523,6.866h2.486a.958.958,0,1,0,0-1.916H7.534c-3.67,0-5.618-2.153-5.618-5.058s1.948-4.918,5.618-4.918h7.383L18.264,10l-.194-.5L15.4,11.789l-3.1,3.024a.868.868,0,0,0-.258.657.9.9,0,0,0,.947.947,1.007,1.007,0,0,0,.7-.3l6.328-6.21a.955.955,0,0,0,0-1.431L13.69,2.264a1.056,1.056,0,0,0-.7-.3.9.9,0,0,0-.947.947.867.867,0,0,0,.258.657L15.4,6.6,18.07,8.872l.194-.5-3.347-.151H7.7C2.777,8.227,0,11.068,0,15.179Z" transform="translate(0 0.2)" fill="#b5b3ba"/>
</svg>
