<svg id="document.fill" xmlns="http://www.w3.org/2000/svg" width="24.88" height="29.648" viewBox="0 0 24.88 29.648">
  <rect id="사각형_24084" data-name="사각형 24084" width="24.88" height="29.648" fill="#59575e" opacity="0"/>
  <path id="패스_7798" data-name="패스 7798" d="M4.478,29.632H19.82c2.99,0,4.478-1.451,4.478-4.326V12.757H13.839c-1.849,0-2.73-.843-2.73-2.612V0H4.478C1.5,0,0,1.465,0,4.34V25.306Q0,29.639,4.478,29.632Zm9.4-18.769H24.125a3.517,3.517,0,0,0-1.2-1.8l-7.96-7.754A3.691,3.691,0,0,0,13.088.152v9.965C13.088,10.615,13.348,10.863,13.883,10.863Z" fill="#59575e"/>
</svg>
