<svg id="gearshape.fill" xmlns="http://www.w3.org/2000/svg" width="26.702" height="26.25" viewBox="0 0 26.702 26.25">
  <rect id="사각형_24082" data-name="사각형 24082" width="26.702" height="26.25" fill="#59575e" opacity="0"/>
  <path id="패스_7796" data-name="패스 7796" d="M11.964,26.238h2.31a1.245,1.245,0,0,0,1.268-1.029l.653-2.762a11.7,11.7,0,0,0,1.381-.552L20,23.375a1.242,1.242,0,0,0,1.607-.163l1.619-1.607a1.262,1.262,0,0,0,.151-1.645l-1.481-2.4a9.364,9.364,0,0,0,.54-1.343l2.787-.665a1.235,1.235,0,0,0,1.017-1.268V12.014a1.231,1.231,0,0,0-1.017-1.255l-2.762-.665a12.452,12.452,0,0,0-.54-1.368L23.4,6.289a1.226,1.226,0,0,0-.151-1.607L21.605,3.063a1.227,1.227,0,0,0-1.569-.188l-2.46,1.519a8.318,8.318,0,0,0-1.381-.565l-.653-2.8A1.245,1.245,0,0,0,14.274,0h-2.31a1.268,1.268,0,0,0-1.28,1.029L10.03,3.8a9.261,9.261,0,0,0-1.393.577L6.2,2.875a1.212,1.212,0,0,0-1.582.188L2.988,4.683a1.212,1.212,0,0,0-.151,1.607L4.306,8.725c-.163.389-.364.854-.527,1.368l-2.762.665A1.231,1.231,0,0,0,0,12.014v2.272a1.235,1.235,0,0,0,1.017,1.268L3.8,16.22a11.025,11.025,0,0,0,.527,1.343l-1.469,2.4a1.247,1.247,0,0,0,.151,1.645L4.62,23.212a1.259,1.259,0,0,0,1.619.163l2.41-1.481a12.631,12.631,0,0,0,1.381.552l.653,2.762A1.268,1.268,0,0,0,11.964,26.238Zm1.155-8.687a4.431,4.431,0,1,1,4.431-4.431A4.431,4.431,0,0,1,13.119,17.55Z" fill="#59575e"/>
</svg>
