<svg id="play.rectangle.fill" xmlns="http://www.w3.org/2000/svg" width="32.49" height="24.975" viewBox="0 0 32.49 24.975">
  <rect id="사각형_24062" data-name="사각형 24062" width="32.49" height="24.975" transform="translate(0)" fill="#59575e" opacity="0"/>
  <path id="패스_7779" data-name="패스 7779" d="M31.988,4.205V20.783c0,2.795-1.411,4.192-4.26,4.192H4.26q-4.253,0-4.26-4.192V4.205C0,1.411,1.424,0,4.26,0H27.728C30.577,0,31.988,1.411,31.988,4.205ZM12.019,7.638v9.727c0,.678.76.99,1.4.6l7.977-4.694a.872.872,0,0,0,0-1.506L13.417,7.041A.878.878,0,0,0,12.019,7.638Z" transform="translate(0 0)" fill="#59575e"/>
</svg>
