<svg xmlns="http://www.w3.org/2000/svg" width="24.129" height="29.965" viewBox="0 0 24.129 29.965">
  <g id="그룹_18606" data-name="그룹 18606" transform="translate(-274 -20.085)">
    <g id="person.badge.plus" transform="translate(253.926 6.737)">
      <rect id="사각형_24066" data-name="사각형 24066" width="9.081" height="9.209" transform="translate(35.122 32.163)" fill="#59575e" opacity="0"/>
      <path id="패스_7782" data-name="패스 7782" d="M26.647,20.486a4.5,4.5,0,1,1-4.5-4.5A4.553,4.553,0,0,1,26.647,20.486ZM21.6,18.21v1.727H19.87a.545.545,0,0,0,0,1.09H21.6v1.736a.545.545,0,0,0,1.09,0V21.027h1.727a.545.545,0,1,0,0-1.09H22.687V18.21a.545.545,0,0,0-1.09,0Z" transform="translate(16.435 16.176)" fill="#59575e"/>
    </g>
    <path id="빼기_14" data-name="빼기 14" d="M-6753.746-9455.036a2.024,2.024,0,0,1-1.628-1.035c-.382-.593-.777-1.2-1.216-1.865a69.611,69.611,0,0,1-5.382-9.173,20.276,20.276,0,0,1-2.028-7.872,9.868,9.868,0,0,1,2.819-7.264,10.363,10.363,0,0,1,7.436-2.756,10.363,10.363,0,0,1,7.436,2.756,9.869,9.869,0,0,1,2.819,7.264,20.4,20.4,0,0,1-2.028,7.872l-.005.012-.005.012a5.512,5.512,0,0,0-5.469,5.5,5.505,5.505,0,0,0,.712,2.709l-.562.861c-.388.592-.843,1.286-1.269,1.945A2.048,2.048,0,0,1-6753.746-9455.036Zm-.255-25.052a5.006,5.006,0,0,0-5,5,5,5,0,0,0,5,5,5.005,5.005,0,0,0,5-5A5.007,5.007,0,0,0-6754-9480.088Z" transform="translate(7038 9505.086)" fill="#59575e"/>
  </g>
</svg>
