<svg id="tray.and.arrow.up.fill" xmlns="http://www.w3.org/2000/svg" width="30.133" height="32.825" viewBox="0 0 30.133 32.825">
  <rect id="사각형_24072" data-name="사각형 24072" width="30.133" height="32.825" fill="#59575e" opacity="0"/>
  <path id="패스_7791" data-name="패스 7791" d="M24.61,8.723l4.341,5.888A3.341,3.341,0,0,1,29.667,17v6.945c0,2.592-1.308,3.9-3.951,3.9H3.951c-2.63,0-3.951-1.308-3.951-3.9V17a3.4,3.4,0,0,1,.717-2.39L5.07,8.723C6.442,6.848,7.184,6.357,9.424,6.357h2.051V8.131h-2.2a2.526,2.526,0,0,0-2.24,1.082l-4.655,6.4c-.2.277-.113.616.3.616h8.014a1.022,1.022,0,0,1,1.044,1.095v.05a3.1,3.1,0,1,0,6.2,0v-.05a1.012,1.012,0,0,1,1.032-1.095h8.014c.415,0,.491-.34.3-.616l-4.655-6.4a2.526,2.526,0,0,0-2.24-1.082h-2.2V6.357h2.051C22.483,6.357,23.238,6.848,24.61,8.723Z" transform="translate(0 1.833)" fill="#59575e"/>
  <path id="패스_7792" data-name="패스 7792" d="M12.671,17.161a1,1,0,0,0,1.006-.969V4.643L13.59,2.768l.717.742,1.938,2.076a.918.918,0,0,0,.679.3.891.891,0,0,0,.629-1.548L13.4.34a.962.962,0,0,0-.73-.34.981.981,0,0,0-.73.34l-4.152,4a.891.891,0,0,0,.616,1.548.945.945,0,0,0,.692-.3L11.035,3.51l.717-.755-.075,1.887v11.55A.991.991,0,0,0,12.671,17.161Z" transform="translate(2.163)" fill="#59575e"/>
</svg>
